<svg width="40" height="40" viewBox="0 0 40 40" fill="none" xmlns="http://www.w3.org/2000/svg">
<path d="M40 0H0V40H40V0Z" fill="#E6110B"/>
<path d="M37.5937 2.39575H2.39583V37.5937H37.5937V2.39575Z" fill="#210301"/>
<path d="M28.4896 21.5105C26.875 21.5105 24.8438 21.7917 24.1875 21.8959C21.4479 19.0313 20.6667 17.4063 20.4896 16.9688C20.7292 16.3542 21.5521 14.0417 21.6771 11.0625C21.7396 9.57296 21.4167 8.45837 20.7396 7.75004C20.0625 7.04171 19.2396 6.98962 19 6.98962C18.1771 6.98962 16.7917 7.40629 16.7917 10.2084C16.7917 12.6355 17.9271 15.2084 18.2396 15.875C16.5938 20.6771 14.8229 23.9584 14.4479 24.6355C7.82292 27.125 7.3125 29.5417 7.3125 30.2188C7.3125 31.448 8.1875 32.1771 9.65625 32.1771C13.2188 32.1771 16.4583 26.2084 17 25.1667C19.5313 24.1563 22.9063 23.5313 23.7708 23.3855C26.2396 25.7396 29.0938 26.3646 30.2708 26.3646C31.1667 26.3646 33.25 26.3646 33.25 24.2188C33.2396 22.2188 30.6771 21.5105 28.4896 21.5105ZM28.3229 22.9167C30.2396 22.9167 30.75 23.5521 30.75 23.8855C30.75 24.0938 30.6667 24.7813 29.6354 24.7813C28.7083 24.7813 27.1146 24.25 25.5521 23.0938C26.2083 23.0105 27.1771 22.9167 28.3229 22.9167ZM18.9063 8.34379C19.0833 8.34379 19.1979 8.39587 19.2917 8.53129C19.8438 9.30212 19.3958 11.8021 18.8542 13.7605C18.3333 12.0834 17.9375 9.50004 18.4896 8.59379C18.5938 8.42712 18.7188 8.34379 18.9063 8.34379ZM17.9688 23.3542C18.6667 21.948 19.4479 19.8959 19.8646 18.7396C20.7188 20.1667 21.8542 21.4792 22.5208 22.198C20.4688 22.6355 18.9063 23.073 17.9688 23.3542ZM8.6875 30.3959C8.64583 30.3438 8.63542 30.2292 8.66667 30.0938C8.73958 29.8021 9.29167 28.375 13.2917 26.5834C12.7188 27.4896 11.8229 28.7813 10.8333 29.7396C10.1354 30.3855 9.60417 30.7188 9.22917 30.7188C9.10417 30.7188 8.92708 30.6771 8.6875 30.3959Z" fill="white"/>
</svg>
