<svg width="14" height="11" viewBox="0 0 14 11" fill="none" xmlns="http://www.w3.org/2000/svg">
<path d="M13.8539 1.46138L13.2985 0.906052L8.15449 6.0501C7.51148 6.69311 6.43006 6.69311 5.78706 6.0501L0.643009 0.935281L0.0876846 1.4906L3.91649 5.31941L4.47182 5.87474L5.23173 6.63465C5.69938 7.1023 6.31315 7.36534 6.95616 7.36534C7.59917 7.36534 8.21294 7.1023 8.68059 6.63465L9.4405 5.87474L9.99583 5.31941L13.8539 1.46138Z" fill="#EF5A5A"/>
<path d="M12.7724 10.6973H1.22756C0.555325 10.6973 0 10.142 0 9.46973V1.22756C0 0.555323 0.555325 0 1.22756 0H12.7724C13.4447 0 14 0.555323 14 1.22756V9.46973C14 10.142 13.4447 10.6973 12.7724 10.6973ZM1.19833 0.789143C0.964509 0.789143 0.789145 0.964507 0.789145 1.19833V9.4405C0.789145 9.67432 0.964509 9.84969 1.19833 9.84969H12.7432C12.977 9.84969 13.1524 9.67432 13.1524 9.4405V1.19833C13.1524 0.964507 12.977 0.789143 12.7432 0.789143H1.19833Z" fill="#EF5A5A"/>
</svg>
