<svg width="40" height="40" viewBox="0 0 40 40" fill="none" xmlns="http://www.w3.org/2000/svg">
<path fill-rule="evenodd" clip-rule="evenodd" d="M15.044 38.9766C15.044 38.4894 15.0269 37.2003 15.017 35.4882C9.45394 36.727 8.28018 32.7388 8.28018 32.7388C7.37039 30.3696 6.05912 29.7389 6.05912 29.7389C4.24322 28.4661 6.19663 28.4926 6.19663 28.4926C8.20406 28.6373 9.25995 30.6062 9.25995 30.6062C11.0439 33.7396 13.9403 32.8357 15.0809 32.3108C15.2626 30.9852 15.7795 30.0813 16.3504 29.5689C11.9095 29.0515 7.24025 27.2916 7.24025 19.4336C7.24025 17.1952 8.01989 15.3648 9.29924 13.9309C9.0942 13.4123 8.40664 11.3275 9.49569 8.50383C9.49569 8.50383 11.1753 7.95244 14.9949 10.6062C16.5898 10.1517 18.3014 9.92261 20.0031 9.91505C21.7011 9.92261 23.4114 10.1517 25.01 10.6062C28.8272 7.95244 30.5043 8.50383 30.5043 8.50383C31.5958 11.3263 30.9095 13.411 30.7032 13.9309C31.985 15.3648 32.7585 17.1952 32.7585 19.4336C32.7585 27.3117 28.0819 29.0452 23.6263 29.5525C24.3457 30.1858 24.9842 31.4371 24.9842 33.3506C24.9842 36.0925 24.9584 38.3044 24.9584 38.9766C24.9584 39.5255 25.3194 40.1625 26.3348 39.9623C34.2748 37.2457 40 29.5639 40 20.5074C40 9.18112 31.0445 0 19.9994 0C8.95546 0 0 9.18112 0 20.5074C0.00122778 29.5664 5.7313 37.2532 13.6787 39.9649C14.6782 40.1524 15.044 39.5192 15.044 38.9766Z" fill="black"/>
</svg>
