<svg width="20" height="20" viewBox="0 0 20 20" fill="none" xmlns="http://www.w3.org/2000/svg">
<path fill-rule="evenodd" clip-rule="evenodd" d="M7.52202 19.4883C7.52202 19.2447 7.51343 18.6002 7.50852 17.7441C4.72697 18.3635 4.14009 16.3694 4.14009 16.3694C3.6852 15.1848 3.02956 14.8694 3.02956 14.8694C2.12161 14.2331 3.09831 14.2463 3.09831 14.2463C4.10203 14.3187 4.62998 15.3031 4.62998 15.3031C5.52196 16.8698 6.97013 16.4179 7.54044 16.1554C7.6313 15.4926 7.88974 15.0406 8.1752 14.7845C5.95476 14.5258 3.62012 13.6458 3.62012 9.71678C3.62012 8.59762 4.00994 7.6824 4.64962 6.96546C4.5471 6.70613 4.20332 5.66377 4.74784 4.25192C4.74784 4.25192 5.58765 3.97622 7.49747 5.30309C8.29491 5.07586 9.15068 4.9613 10.0015 4.95753C10.8505 4.9613 11.7057 5.07586 12.505 5.30309C14.4136 3.97622 15.2522 4.25192 15.2522 4.25192C15.7979 5.66314 15.4547 6.7055 15.3516 6.96546C15.9925 7.6824 16.3793 8.59762 16.3793 9.71678C16.3793 13.6559 14.0409 14.5226 11.8131 14.7763C12.1729 15.0929 12.4921 15.7186 12.4921 16.6753C12.4921 18.0462 12.4792 19.1522 12.4792 19.4883C12.4792 19.7628 12.6597 20.0813 13.1674 19.9812C17.1374 18.6228 20 14.7819 20 10.2537C20 4.59056 15.5223 0 9.99969 0C4.47773 0 0 4.59056 0 10.2537C0.000613892 14.7832 2.86565 18.6266 6.83937 19.9824C7.33908 20.0762 7.52202 19.7596 7.52202 19.4883Z" fill="black"/>
</svg>
