<svg width="41" height="40" viewBox="0 0 41 40" fill="none" xmlns="http://www.w3.org/2000/svg">
<path d="M40.2471 0H0V40H40.2471V0Z" fill="#FF7C00"/>
<path d="M36.8741 3.3522H3.37299V36.6478H36.8741V3.3522Z" fill="#261300"/>
<path d="M30.1645 16.0224H26.9865C26.9047 16.0224 26.8383 16.0887 26.8383 16.1706V29.2179C26.8383 29.2997 26.9047 29.3661 26.9865 29.3661H30.1645C30.2464 29.3661 30.3127 29.2997 30.3127 29.2179V16.1706C30.3127 16.0887 30.2464 16.0224 30.1645 16.0224Z" fill="#FF7C00"/>
<path d="M28.5755 14.2591C29.5953 14.2591 30.422 13.4686 30.422 12.4933C30.422 11.5181 29.5953 10.7275 28.5755 10.7275C27.5558 10.7275 26.7291 11.5181 26.7291 12.4933C26.7291 13.4686 27.5558 14.2591 28.5755 14.2591Z" fill="#FF7C00"/>
<path fill-rule="evenodd" clip-rule="evenodd" d="M19.9701 24.7006L21.273 29.015C21.3406 29.2699 21.4732 29.3323 21.6527 29.3297H24.9893C25.2467 29.3323 25.2649 29.2543 25.2259 29.0826L19.7152 10.7015C19.7048 10.6677 19.6788 10.6443 19.6268 10.6443L15.0055 10.6313C14.8235 10.6313 14.8209 10.7249 14.8365 10.9018C14.8937 11.5415 14.8625 11.9004 14.7273 12.4023L9.84852 29.093C9.79651 29.2517 9.80951 29.3297 10.0176 29.3323L13.1669 29.3297C13.4998 29.3193 13.518 29.2283 13.5752 29.0618L14.6675 24.7006H19.9701ZM19.2965 21.3458H15.471L17.3253 13.8456L19.2965 21.3458Z" fill="#FF7C00"/>
</svg>
