<svg width="9" height="14" viewBox="0 0 9 14" fill="none" xmlns="http://www.w3.org/2000/svg">
<path d="M8.35329 0.549995C8.35329 0.245742 8.10657 0 7.80281 0H0.549995C0.24623 0 0 0.245742 0 0.549995V13.4505C0 13.7538 0.24623 14 0.549995 14H7.80281C8.10657 14 8.35329 13.7538 8.35329 13.4505V0.549995ZM4.17274 13.4203C3.81534 13.4203 3.52523 13.1306 3.52523 12.7732C3.52523 12.4168 3.81534 12.1272 4.17274 12.1272C4.52966 12.1272 4.81928 12.4168 4.81928 12.7732C4.81928 13.1306 4.53014 13.4203 4.17274 13.4203ZM7.308 11.3659H1.05V1.10455H7.308V11.3659Z" fill="#EF5A5A"/>
</svg>
