<svg width="40" height="40" viewBox="0 0 40 40" fill="none" xmlns="http://www.w3.org/2000/svg">
<path d="M40 0H0V40H40V0Z" fill="#02C7FA"/>
<path d="M37.5937 2.39581H2.39583V37.5937H37.5937V2.39581Z" fill="#001D25"/>
<path d="M13.1562 22.4271V26.8021C13.1562 27.3125 12.75 27.7187 12.2396 27.7187H11.1354C10.625 27.7187 10.2188 27.3125 10.2188 26.8021V10.6979C10.2188 10.1875 10.625 9.78124 11.1354 9.78124H13.125C13.1458 9.78124 21.0625 9.40624 21.1042 14.8958C21.1042 14.9271 21.1042 14.9479 21.1042 14.9792C21.1562 15.4792 21.6146 21.1146 14.0208 21.5104C13.5312 21.5417 13.1562 21.9375 13.1562 22.4271Z" fill="#03C7FB"/>
<path d="M12.9896 12.9166V18.2604C12.9896 18.5312 13.2083 18.75 13.4687 18.75C14.7083 18.7604 17.9062 18.2916 17.9062 15.375C17.9062 15.375 18.2917 12.5 13.5 12.4271C13.2292 12.4271 12.9896 12.6458 12.9896 12.9166Z" fill="#001D25"/>
<path d="M25.8021 27.9062C24.9375 27.9271 24.0833 27.875 23.25 27.5729C22.6667 27.3646 22.3021 27.0729 22.3438 26.3958C22.375 25.9271 22.3333 25.4479 22.3542 24.9792C22.375 24.5417 22.4479 24.25 23.0104 24.5833C24 25.1667 25.1042 25.3854 26.2604 25.2917C26.8333 25.2396 27.3958 25.1562 27.5938 24.5312C27.8125 23.8542 27.4583 23.3437 26.9271 23C26.0938 22.4687 25.2083 22.0312 24.3646 21.5104C22.1667 20.1354 22.0313 17.8437 22.9271 16.2917C23.5521 15.2083 24.5104 14.5312 25.7292 14.3542C26.9479 14.1875 28.1875 14.2083 29.3958 14.5208C29.8021 14.625 30.0417 14.8542 30.0417 15.2917C30.0417 15.8437 30.0521 16.3958 30.0521 16.9479C30.0625 17.5 29.8021 17.5833 29.3542 17.3437C28.4375 16.8646 27.4583 16.8125 26.4479 16.8646C25.9167 16.8854 25.5208 17.125 25.3854 17.6354C25.2604 18.1146 25.3646 18.5521 25.7917 18.8958C26.6354 19.5729 27.6771 19.9062 28.5729 20.5104C30.3438 21.7083 31 23.2708 30.4479 25.2292C30.0521 26.6146 28.5313 27.875 26.5833 27.9062C26.3229 27.9062 26.0625 27.9062 25.8021 27.9062Z" fill="#03C7FB"/>
</svg>
