<svg width="20" height="20" viewBox="0 0 20 20" fill="none" xmlns="http://www.w3.org/2000/svg">
<circle cx="10" cy="10" r="10" fill="#554234"/>
<path d="M16 7.44326V9.52046C15.9213 9.85286 15.7469 10.1581 15.4892 10.4058C15.1268 10.7536 14.6438 10.9453 14.1299 10.9453H10.8988C10.8988 10.9453 10.215 10.9453 9.9478 10.9453H9.58708C9.31996 10.9453 9.10132 10.9453 9.10132 10.9453H5.87002C5.35612 10.9453 4.87324 10.7536 4.51072 10.4058C4.25284 10.1585 4.07872 9.85298 4 9.5207V7.44326C4 6.99548 4.3666 6.62888 4.81444 6.62888H15.1857C15.6335 6.62888 16 6.99548 16 7.44326ZM15.7714 10.6995C15.3324 11.1205 14.7498 11.3526 14.1299 11.3526H10.8988V11.9851C10.8988 12.252 10.6801 12.4708 10.4129 12.4708H9.58708C9.31996 12.4708 9.10132 12.252 9.10132 11.9851V11.3526H5.87002C5.25022 11.3526 4.6675 11.1205 4.2286 10.6995C4.1452 10.6194 4.06888 10.5343 4 10.4451V14.8545C4 15.3026 4.3666 15.6689 4.81444 15.6689H15.1857C15.6335 15.6689 16 15.3026 16 14.8545V10.4451C15.931 10.5343 15.855 10.6194 15.7714 10.6995ZM11.8778 5.23862C11.7186 5.0795 11.5101 5 11.3018 5H8.69842C8.48998 5 8.28136 5.0795 8.12236 5.23862C7.96348 5.39762 7.88392 5.60606 7.88392 5.81444V6.22166H8.57602V5.81444C8.57602 5.79134 8.58232 5.75756 8.61202 5.72804C8.64142 5.69852 8.67514 5.6921 8.69842 5.6921H11.3019C11.3248 5.6921 11.3586 5.69852 11.3881 5.72804C11.4177 5.75756 11.424 5.79134 11.424 5.81444V6.22166H12.1161V5.81444C12.1161 5.60606 12.0366 5.39768 11.8778 5.23862Z" fill="white"/>
<path d="M9.4 11.36H10.6V11.8999C10.6 12.0656 10.4657 12.1999 10.3 12.1999H9.7C9.53432 12.1999 9.4 12.0656 9.4 11.8999V11.36Z" fill="white"/>
</svg>
