<svg width="41" height="40" viewBox="0 0 41 40" fill="none" xmlns="http://www.w3.org/2000/svg">
<path d="M4.41896 40H24.3107C24.3107 40 19.9045 29.9778 21.0251 20.7832C22.1458 11.5887 29.4046 7.39896 33.518 6.95324C37.6313 6.50752 39.8726 9.04175 39.8726 9.04175L40.7641 7.69186C40.7641 7.69186 34.8551 1.7065 27.3798 2.38144C19.9045 3.05639 14.7469 7.98476 11.525 13.9701C8.31581 19.9555 6.44379 24.1452 5.17031 30.4235C3.89683 36.7145 4.41896 40 4.41896 40Z" fill="#CC0000"/>
<path d="M0.45845 29.9777L4.34256 30.2706L3.66762 34.1547L0 33.709L0.45845 29.9777Z" fill="#CC0000"/>
<path d="M6.5839 21.7511L7.62815 18.8348L4.18976 17.4849L3.06909 20.6304L6.5839 21.7511Z" fill="#CC0000"/>
<path d="M11.4486 11.7415L13.4734 9.34734L10.8628 7.62814L8.76154 9.94588L11.4486 11.7415Z" fill="#CC0000"/>
<path d="M16.759 2.47057L18.5546 4.63548L21.0251 3.20918L19.2295 1.18436L16.759 2.47057Z" fill="#CC0000"/>
<path d="M25.5078 3.05176e-05L25.9535 2.16495L29.0226 2.08853L28.717 0.14011L25.5078 3.05176e-05Z" fill="#CC0000"/>
<path d="M35.8994 2.31772L35.823 3.66761L37.9115 4.78827L38.3572 4.11333L35.8994 2.31772Z" fill="#CC0000"/>
<path d="M35.4537 8.07385V9.19451L37.4785 9.42375V8.53231L35.4537 8.07385Z" fill="#CC0000"/>
<path d="M29.0226 9.04172L29.9904 10.8373L31.4167 9.71667L31.1238 8.51959L29.0226 9.04172Z" fill="#CC0000"/>
<path d="M25.9535 11.3594L27.4435 13.6008L26.5521 15.1671L24.3871 12.773L25.9535 11.3594Z" fill="#CC0000"/>
<path d="M22.9608 17.574L21.993 19.5225L24.54 21.6874L25.1385 19.2168L22.9608 17.574Z" fill="#CC0000"/>
<path d="M21.9166 24.3744L21.7637 26.985L24.9092 28.3349L24.7564 25.8644L21.9166 24.3744Z" fill="#CC0000"/>
<path d="M22.8208 33.6453L23.5721 36.3324L27.5326 36.5616L26.1063 33.6453H22.8208Z" fill="#CC0000"/>
</svg>
