<svg width="40" height="40" viewBox="0 0 40 40" fill="none" xmlns="http://www.w3.org/2000/svg">
<path d="M26.56 7.16003L7.15999 13.44L13.48 32.84L32.84 26.56L26.56 7.16003Z" fill="white"/>
<path d="M32.84 26.56L39.52 24.4C39.84 23 40 21.52 40 20.04C40 14.08 37.36 8.68004 33.2 5.04004L26.52 7.20004L32.84 26.56Z" fill="#DFA22F"/>
<path d="M13.48 32.8401L7.16 13.4401C4.88 14.2001 2.64 14.9201 0.48 15.6001C0.16 17.0401 0 18.4801 0 20.0001C0 26.0001 2.64 31.3601 6.8 35.0001L13.48 32.8401Z" fill="#3CB187"/>
<path d="M13.48 32.8399L15.64 39.5199C17.04 39.8399 18.52 39.9999 20 39.9999C26 39.9999 31.36 37.3599 35 33.1999L32.84 26.5199L13.48 32.8399Z" fill="#CE1E5B"/>
<path d="M6.80001 35C9.28001 37.2 12.28 38.76 15.64 39.52L13.48 32.84L6.80001 35Z" fill="#392538"/>
<path d="M32.84 26.56L35 33.24C37.2 30.76 38.76 27.76 39.52 24.4L32.84 26.56Z" fill="#BB242A"/>
<path d="M26.56 7.16L24.4 0.48C22.96 0.16 21.52 0 20 0C14.04 0 8.64 2.64 5 6.8L7.16 13.48L26.56 7.16Z" fill="#72C5CD"/>
<path d="M7.15999 13.44C6.39999 11.16 5.67999 8.92005 4.99999 6.80005C2.79999 9.28005 1.23999 12.32 0.479992 15.64L7.15999 13.44Z" fill="#248C73"/>
<path d="M24.36 0.47998L26.52 7.15998L33.2 4.99998C30.72 2.79998 27.72 1.23998 24.36 0.47998Z" fill="#62803A"/>
<path d="M13.36 16.6401C13.36 13.4401 15.68 11.2001 19.92 11.2001C22.52 11.2001 24.64 12.0401 25.76 12.8401C25.92 12.9601 26.2 13.2401 26.04 13.7601C25.8 14.3201 25.4 15.1601 25.12 15.7201C24.96 16.0401 24.52 16.0001 24.28 15.8801C23.48 15.4801 22.12 14.7601 20.88 14.6401C20.56 14.6001 20.24 14.6001 19.96 14.6001C18.88 14.6401 17.96 15.0001 17.64 15.8401C17.56 16.0001 17.56 16.1601 17.52 16.3201C17.48 17.4001 19 17.8001 20.84 18.1201C24.24 18.7201 26.84 19.7201 26.84 23.2401C26.84 26.2401 24.48 28.9201 19.8 28.8401C16.72 28.7601 14.56 27.7601 13.4 26.7201C13.36 26.6801 12.92 26.2401 13.16 25.6801C13.44 25.0001 13.88 24.1601 14.24 23.7601C14.44 23.4801 14.96 23.4401 15.24 23.6001C16.2 24.2001 17.8 25.1601 19.6 25.2001C19.76 25.2001 19.88 25.2001 20.04 25.2001C21.68 25.1601 22.68 24.5201 22.64 23.4801C22.64 22.5601 21.32 22.0001 19.24 21.6401C16 21.0401 13.36 19.9601 13.36 16.6401Z" fill="#443642"/>
</svg>
